<svg width="104" height="104" viewBox="0 0 104 104" fill="none" xmlns="http://www.w3.org/2000/svg">
<path d="M48.0506 92.2866C40.4433 91.5219 33.2091 88.6142 27.1888 83.9013C21.1685 79.1883 16.6092 72.8638 14.0407 65.6625C11.4721 58.4612 10.9999 50.6788 12.6788 43.2198C14.3577 35.7607 18.1189 28.9312 23.5251 23.525C28.9314 18.1187 35.7609 14.3575 43.2199 12.6786C50.6789 10.9997 58.4612 11.4719 65.6625 14.0405C72.8638 16.609 79.1884 21.1683 83.9013 27.1886C88.6142 33.209 91.5219 40.4431 92.2866 48.0505H93.8352C94.2299 48.0515 94.6224 48.1105 95 48.2255C94.2658 40.0658 91.2205 32.2846 86.2212 25.7942C81.2218 19.3037 74.4757 14.3731 66.7738 11.5805C59.0718 8.78786 50.7333 8.24893 42.736 10.0269C34.7386 11.8049 27.4139 15.8261 21.6207 21.619C15.8275 27.4119 11.8059 34.7363 10.0274 42.7336C8.24901 50.7309 8.78745 59.0694 11.5796 66.7716C14.3718 74.4737 19.302 81.2201 25.7922 86.2199C32.2823 91.2196 40.0633 94.2653 48.2229 95C48.1089 94.6222 48.0508 94.2298 48.0506 93.8352V92.2866Z" fill="white"/>
<path d="M94.6538 51.4373C94.5289 51.2997 94.3766 51.1897 94.2067 51.1144C94.0367 51.0391 93.853 51.0001 93.6671 51H52.3333C51.9797 51 51.6406 51.1405 51.3905 51.3905C51.1405 51.6406 51 51.9797 51 52.3333V93.6667C51 94.0203 51.1405 94.3594 51.3905 94.6095C51.6406 94.8595 51.9797 95 52.3333 95C59.2419 94.7162 66.0008 92.899 72.1202 89.68C81.383 84.8133 92.8711 74.406 94.9938 52.462C95.0117 52.2769 94.9907 52.0902 94.9322 51.9137C94.8736 51.7372 94.7788 51.575 94.6538 51.4373ZM70.9749 87.2693C65.5942 90.0671 59.7105 91.7659 53.6667 92.2667V53.6667H92.1831C90.3017 69.52 83.1723 80.8207 70.9749 87.2693Z" fill="white"/>
</svg>
