<svg width="104" height="104" viewBox="0 0 104 104" fill="none" xmlns="http://www.w3.org/2000/svg">
<path d="M90.2222 22H13.7778C12.5106 22 11.2954 22.4991 10.3994 23.3874C9.50337 24.2757 9 25.4806 9 26.7368V77.2632C9 78.5194 9.50337 79.7243 10.3994 80.6126C11.2954 81.5009 12.5106 82 13.7778 82H90.2222C91.4894 82 92.7046 81.5009 93.6006 80.6126C94.4966 79.7243 95 78.5194 95 77.2632V26.7368C95 25.4806 94.4966 24.2757 93.6006 23.3874C92.7046 22.4991 91.4894 22 90.2222 22ZM13.7778 25.1579H90.2222C90.6446 25.1579 91.0497 25.3242 91.3484 25.6204C91.647 25.9165 91.8148 26.3181 91.8148 26.7368V37.7895H12.1852V26.7368C12.1852 26.3181 12.353 25.9165 12.6516 25.6204C12.9503 25.3242 13.3554 25.1579 13.7778 25.1579ZM90.2222 78.8421H13.7778C13.3554 78.8421 12.9503 78.6758 12.6516 78.3796C12.353 78.0835 12.1852 77.6819 12.1852 77.2632V40.9474H91.8148V77.2632C91.8148 77.6819 91.647 78.0835 91.3484 78.3796C91.0497 78.6758 90.6446 78.8421 90.2222 78.8421ZM82.2593 67.7895C82.2593 68.2082 82.0915 68.6099 81.7928 68.906C81.4941 69.2021 81.0891 69.3684 80.6667 69.3684H67.9259C67.5035 69.3684 67.0985 69.2021 66.7998 68.906C66.5011 68.6099 66.3333 68.2082 66.3333 67.7895C66.3333 67.3707 66.5011 66.9691 66.7998 66.673C67.0985 66.3769 67.5035 66.2105 67.9259 66.2105H80.6667C81.0891 66.2105 81.4941 66.3769 81.7928 66.673C82.0915 66.9691 82.2593 67.3707 82.2593 67.7895ZM56.7778 67.7895C56.7778 68.2082 56.61 68.6099 56.3113 68.906C56.0126 69.2021 55.6076 69.3684 55.1852 69.3684H48.8148C48.3924 69.3684 47.9874 69.2021 47.6887 68.906C47.39 68.6099 47.2222 68.2082 47.2222 67.7895C47.2222 67.3707 47.39 66.9691 47.6887 66.673C47.9874 66.3769 48.3924 66.2105 48.8148 66.2105H55.1852C55.6076 66.2105 56.0126 66.3769 56.3113 66.673C56.61 66.9691 56.7778 67.3707 56.7778 67.7895Z" fill="white"/>
</svg>
