<svg width="104" height="104" viewBox="0 0 104 104" fill="none" xmlns="http://www.w3.org/2000/svg">
<path fill-rule="evenodd" clip-rule="evenodd" d="M35.75 11.25C34.4239 11.25 33.1521 11.7768 32.2145 12.7145C31.2768 13.6521 30.75 14.9239 30.75 16.25V87.75C30.75 89.0761 31.2768 90.3478 32.2145 91.2855C33.1521 92.2232 34.4239 92.75 35.75 92.75H68.25C69.5761 92.75 70.8479 92.2232 71.7855 91.2855C72.7232 90.3478 73.25 89.0761 73.25 87.75V16.25C73.25 14.9239 72.7232 13.6521 71.7855 12.7145C70.8479 11.7768 69.5761 11.25 68.25 11.25H35.75ZM30.0931 10.5931C31.5934 9.09285 33.6283 8.25 35.75 8.25H68.25C70.3717 8.25 72.4066 9.09285 73.9069 10.5931C75.4071 12.0934 76.25 14.1283 76.25 16.25V87.75C76.25 89.8717 75.4071 91.9066 73.9069 93.4069C72.4066 94.9071 70.3717 95.75 68.25 95.75H35.75C33.6283 95.75 31.5934 94.9071 30.0931 93.4069C28.5929 91.9066 27.75 89.8717 27.75 87.75V16.25C27.75 14.1283 28.5929 12.0934 30.0931 10.5931ZM47.25 81.25C47.25 80.4216 47.9216 79.75 48.75 79.75H55.25C56.0784 79.75 56.75 80.4216 56.75 81.25C56.75 82.0784 56.0784 82.75 55.25 82.75H48.75C47.9216 82.75 47.25 82.0784 47.25 81.25Z" fill="white"/>
</svg>
